# xmcd
#
# Track frame offsets: 
#        150
#        25755
#        43408
#        60194
#        78268
#        88947
#        102102
#        119006
#        133510
#        149200
#        184960
#        198784
#        212524
#        235397
#        250666
#        264887
#        281658
#        309935
#
# Disc length: 4446 seconds
#
# Revision: 1
# Processed by: cddbd v1.5.2PL0 Copyright (c) Steve Scherf et al.
# Submitted via: ExactAudioCopy v0.99pb5
#
DISCID=00115c12
DTITLE=Tony Joe White - Swamp Music The Complete Monument Recordings C
DTITLE=D3
DYEAR=2006
DGENRE=Swamp Blues
TTITLE0=Stud Spider
TTITLE1=High Sheriff Of Calhoun Parrish
TTITLE2=Widow Wimberly
TTITLE3=Conjure Woman
TTITLE4=Save Your Sugar For Me
TTITLE5=Hard To Handle
TTITLE6=What Does It Take (To Win Your Love)
TTITLE7=My Friend
TTITLE8=Stockholm Blues
TTITLE9=Boom Boom
TTITLE10=Groupy Girl
TTITLE11=Prisoner
TTITLE12=Do You Want My Love
TTITLE13=Gospel Singer
TTITLE14=I Hate To See You Cry
TTITLE15=Dusty Marshmallow
TTITLE16=I Can't Stand It
TTITLE17=Mississippi River
EXTD=
EXTT0=
EXTT1=
EXTT2=
EXTT3=
EXTT4=
EXTT5=
EXTT6=
EXTT7=
EXTT8=
EXTT9=
EXTT10=
EXTT11=
EXTT12=
EXTT13=
EXTT14=
EXTT15=
EXTT16=
EXTT17=
PLAYORDER=
